<svg preserveAspectRatio="none" width="100%" height="100%" overflow="visible" style="display: block;" viewBox="0 0 21.5 18.5" fill="none" xmlns="http://www.w3.org/2000/svg">
<path id="Vector" d="M18.75 17.75C19.2804 17.75 19.7891 17.5393 20.1642 17.1642C20.5393 16.7891 20.75 16.2804 20.75 15.75V5.75C20.75 5.21957 20.5393 4.71086 20.1642 4.33579C19.7891 3.96071 19.2804 3.75 18.75 3.75H10.85C10.5155 3.75328 10.1855 3.67261 9.8903 3.51538C9.59505 3.35815 9.34396 3.12938 9.16 2.85L8.35 1.65C8.16789 1.37347 7.91997 1.14648 7.6285 0.989396C7.33702 0.832314 7.01111 0.750055 6.68 0.75H2.75C2.21957 0.75 1.71086 0.960714 1.33579 1.33579C0.960714 1.71086 0.75 2.21957 0.75 2.75V15.75C0.75 16.2804 0.960714 16.7891 1.33579 17.1642C1.71086 17.5393 2.21957 17.75 2.75 17.75H18.75Z" stroke="var(--stroke-0, #475569)" stroke-width="1.5" stroke-linecap="round" stroke-linejoin="round"/>
</svg>
